<?xml version="1.0"?>
<svg xmlns="http://www.w3.org/2000/svg" xmlns:xlink="http://www.w3.org/1999/xlink" xmlns:svgjs="http://svgjs.com/svgjs" version="1.1" width="512" height="512" x="0" y="0" viewBox="0 0 512 512" style="enable-background:new 0 0 512 512" xml:space="preserve" class=""><g transform="matrix(0.32,0,0,0.32,174.08002334594727,174.07999999999998)"><link type="text/css" id="dark-mode" rel="stylesheet"/><style type="text/css" id="dark-mode-custom-style"/><g xmlns="http://www.w3.org/2000/svg"><g><g><g><path d="m332.421 45.878c-1.921 0-3.841-.732-5.306-2.198-18.49-18.49-43.074-28.673-69.223-28.673s-50.732 10.183-69.222 28.673c-2.93 2.93-7.681 2.93-10.611 0-2.931-2.93-2.931-7.681 0-10.611 21.324-21.325 49.676-33.069 79.833-33.069 30.158 0 58.511 11.744 79.835 33.069 2.93 2.93 2.93 7.681 0 10.611-1.465 1.465-3.386 2.198-5.306 2.198z" fill="#62d8f9" data-original="#62d8f9" style="" class=""/></g><g><path d="m299.612 78.686c-1.92 0-3.841-.733-5.306-2.198-20.079-20.08-52.749-20.079-72.827 0-2.93 2.93-7.681 2.93-10.611 0-2.931-2.93-2.931-7.681 0-10.611 25.93-25.93 68.121-25.93 94.051 0 2.93 2.93 2.93 7.681 0 10.611-1.466 1.466-3.387 2.198-5.307 2.198z" fill="#62d8f9" data-original="#62d8f9" style="" class=""/></g></g><g><circle cx="257.555" cy="112.565" fill="#62d8f9" r="12.477" data-original="#62d8f9" style="" class=""/></g></g><g><g><path d="m497.882 336.858-231.286-186.295c-6.186-4.982-15.007-4.982-21.192 0l-231.286 186.295c-5.878 4.734-2.53 14.227 5.017 14.227h41.711v150.645c0 5.672 4.598 10.27 10.27 10.27h369.769c5.672 0 10.27-4.598 10.27-10.27v-150.645h41.711c7.546 0 10.894-9.493 5.016-14.227z" fill="#62d8f9" data-original="#62d8f9" style="" class=""/></g><g><path d="m497.882 336.858-29.114-23.451h-38.23c-9.423 0-17.061 7.639-17.061 17.061v133.584c0 5.672-4.598 10.27-10.27 10.27h-342.361v27.408c0 5.672 4.598 10.27 10.27 10.27h369.769c5.672 0 10.27-4.598 10.27-10.27v-150.645h41.711c7.546 0 10.894-9.493 5.016-14.227z" fill="#00bef7" data-original="#00bef7" style=""/></g><g><path d="m264.348 512h-15.007v-227.845l36.369-36.369 10.612 10.611-31.974 31.974z" fill="#c7eefb" data-original="#c7eefb" style="" class=""/></g><g fill="#c7eefb"><path d="m180.016 360.779h36.341l-.036-15.006h-36.305v-52.493h-15.007v90.759l31.753 31.753v96.208h15.007v-102.424l-31.753-31.753z" fill="#c7eefb" data-original="#c7eefb" style="" class=""/><path d="m140.326 455.155v-92.259h-15.007v87.863h-27.388v15.007h31.783l30.34 30.34v15.894h15.007v-22.11z" fill="#c7eefb" data-original="#c7eefb" style="" class=""/><path d="m411.423 393.428h-29.972v-39.545h-15.007v158.117h15.007v-103.565h29.972z" fill="#c7eefb" data-original="#c7eefb" style="" class=""/><path d="m303.149 328.147-10.613 10.612 27.246 27.245v101.536h-31.944v15.007h31.944v29.453h15.007v-152.211z" fill="#c7eefb" data-original="#c7eefb" style="" class=""/></g><g><circle cx="373.948" cy="350.613" fill="#f1faff" r="12.477" data-original="#f1faff" style=""/></g><g><circle cx="297.842" cy="334.319" fill="#f1faff" r="12.477" data-original="#f1faff" style=""/></g><g><circle cx="291.016" cy="253.092" fill="#f1faff" r="12.477" data-original="#f1faff" style=""/></g><g><circle cx="172.512" cy="289.075" fill="#f1faff" r="12.477" data-original="#f1faff" style=""/></g><g><circle cx="132.823" cy="362.896" fill="#f1faff" r="12.477" data-original="#f1faff" style=""/></g><g><circle cx="97.931" cy="458.263" fill="#f1faff" r="12.477" data-original="#f1faff" style=""/></g><g><circle cx="216.173" cy="353.128" fill="#f1faff" r="12.477" data-original="#f1faff" style=""/></g><g><circle cx="290.839" cy="475.044" fill="#f1faff" r="12.477" data-original="#f1faff" style=""/></g><g><circle cx="414.424" cy="400.932" fill="#f1faff" r="12.477" data-original="#f1faff" style=""/></g></g></g></g></svg>
