<?xml version="1.0" standalone="no"?>
<!DOCTYPE svg PUBLIC "-//W3C//DTD SVG 20010904//EN"
 "http://www.w3.org/TR/2001/REC-SVG-20010904/DTD/svg10.dtd">
<svg version="1.0" xmlns="http://www.w3.org/2000/svg"
 width="2133.000000pt" height="2133.000000pt" viewBox="0 0 2133.000000 2133.000000"
 preserveAspectRatio="xMidYMid meet">

<g transform="translate(0.000000,2133.000000) scale(0.100000,-0.100000)"
fill="#000000" stroke="none">
<path d="M7610 20940 c-105 -22 -195 -52 -274 -92 -353 -176 -587 -504 -636
-891 -6 -52 -10 -586 -10 -1474 l0 -1393 623 -2 622 -3 5 -4170 5 -4170 22
-78 c49 -170 148 -335 270 -446 37 -35 124 -99 193 -142 l125 -78 200 198
c110 109 225 221 256 250 l57 53 -25 61 c-14 34 -34 103 -44 152 -18 87 -19
261 -19 5641 0 5973 3 5611 -47 5784 -117 409 -467 724 -894 805 -112 21 -320
19 -429 -5z"/>
<path d="M11712 20281 c-169 -58 -254 -253 -182 -417 25 -58 85 -121 144 -152
l51 -27 1652 -3 c1650 -2 1652 -2 1707 18 199 75 260 335 116 493 -31 34 -70
63 -102 78 l-53 24 -1640 2 c-1568 2 -1642 2 -1693 -16z"/>
<path d="M11753 18850 c-238 -48 -330 -343 -160 -518 23 -24 60 -53 82 -65
l40 -22 869 -3 c975 -3 924 -6 1011 70 92 81 129 220 91 336 -23 68 -92 144
-164 179 l-57 28 -835 2 c-459 0 -854 -3 -877 -7z"/>
<path d="M11728 17386 c-94 -26 -183 -112 -210 -206 -34 -120 1 -241 93 -324
92 -83 -59 -77 1799 -74 l1655 3 54 30 c131 72 190 224 146 373 -20 68 -96
151 -167 183 l-53 24 -1635 2 c-1298 1 -1645 -1 -1682 -11z"/>
<path d="M11684 15926 c-238 -111 -237 -452 2 -563 l52 -23 878 2 879 3 47 27
c61 36 123 108 142 165 9 26 16 74 16 108 0 34 -7 82 -16 108 -19 57 -81 129
-142 165 l-47 27 -880 3 -880 2 -51 -24z"/>
<path d="M11728 14506 c-96 -26 -182 -111 -210 -206 -18 -65 -14 -158 10 -212
27 -62 86 -124 146 -156 l51 -27 1407 -3 1407 -2 293 289 293 289 -40 19 c-38
17 -116 18 -1675 20 -1295 1 -1645 -1 -1682 -11z"/>
<path d="M11753 13070 c-238 -49 -330 -343 -160 -518 23 -24 60 -53 82 -65 40
-22 44 -22 723 -25 l684 -3 264 263 c298 296 285 271 175 326 l-56 27 -835 2
c-459 0 -854 -3 -877 -7z"/>
<path d="M11709 11594 c-62 -19 -141 -91 -175 -159 -48 -100 -35 -230 34 -320
71 -92 41 -110 362 210 l285 285 -230 -1 c-170 0 -242 -4 -276 -15z"/>
</g>
</svg>
